<svg width="20" height="20" viewBox="0 0 20 20" fill="none" xmlns="http://www.w3.org/2000/svg">
<path d="M17.5 13.75C17.5 17.5 17.0833 17.5 10 17.5C2.91669 17.5 2.50002 17.5 2.50002 13.75C2.50005 11.9656 2.50002 9.58333 2.50002 7.91667C2.50002 6.33333 3.25211 6.25417 9.04313 3.03505C9.63783 2.70447 10.3681 2.6951 10.97 3.01227C17.1222 6.2538 17.5 6.32961 17.5 7.91667C17.5 11.0501 17.5 11.1323 17.5 13.75Z" stroke="white" stroke-width="1.5" stroke-linecap="round" stroke-linejoin="round"/>
<path d="M7.5 17.0833V14.75C7.5 14.1977 7.94772 13.75 8.5 13.75H11.5C12.0523 13.75 12.5 14.1977 12.5 14.75V17.0833" stroke="white" stroke-width="1.5" stroke-linecap="round"/>
</svg>
