<svg width="101" height="44" viewBox="0 0 101 44" fill="none" xmlns="http://www.w3.org/2000/svg">
<g clip-path="url(#clip0_53_188)">
<path d="M39.0867 7.79439C47.1476 7.50893 53.9119 13.8753 54.1965 22.0151C54.4808 30.1545 48.1778 36.9863 40.1166 37.2756C32.053 37.565 25.2841 31.1975 24.9995 23.055C24.7152 14.9125 31.0224 8.07947 39.0867 7.79439Z" fill="white"/>
<path d="M38.931 15.6302C42.7141 15.2651 46.0711 18.0734 46.4199 21.8946C46.7688 25.7161 43.9773 29.0964 40.1915 29.4364C36.4238 29.7748 33.0944 26.9715 32.747 23.1677C32.3996 19.364 35.1651 15.9933 38.931 15.6302Z" fill="#3D3936"/>
<path d="M81.5321 8.03659H100.734V15.1249H89.8592V18.98H99.1809V25.6249H89.8592V28.2825V29.9273H101.325V37.0141H81.5237L81.5321 8.03659Z" fill="white"/>
<path d="M56.2325 8.03659L63.0539 8.03196C66.2142 8.03157 68.8247 7.83882 72.0011 8.70023C77.7402 10.2573 80.171 15.7047 78.6484 21.3113C77.9617 23.8414 76.2957 25.4121 74.0195 26.6381L79.5937 37.0141H70.9311C69.6377 34.0811 68.0852 30.9263 66.7165 28.0033H64.3806V37.0141H56.2268V26.3643C58.4398 24.0778 60.9349 21.4364 63.5389 19.6147C65.7597 18.0611 70.5244 17.1162 72.2096 19.9349C72.2509 18.4717 72.1392 17.207 70.7188 16.397C70.2907 16.1532 69.8607 16.0489 69.4303 15.8113C69.4357 15.7063 69.4387 15.6012 69.4395 15.4958C69.441 15.1504 69.366 14.6224 69.0883 14.43C66.63 12.7253 59.0144 12.6005 56.2268 12.7006L56.2325 8.03659Z" fill="white"/>
<path d="M14.5189 8.03658C17.6501 8.00104 19.9684 8.45493 22.7737 9.85212V17.2031C19.8647 15.6588 15.569 14.7108 12.4244 16.0485C10.7546 16.7458 9.43902 18.1008 8.78217 19.8005C8.05895 21.7014 8.10925 23.814 8.92211 25.6774C9.62582 27.3002 10.9573 28.5607 12.6061 29.1656C15.7354 30.3244 20.04 29.215 22.9646 27.853V33.227V35.2724C20.8253 36.352 18.4585 36.7708 16.0935 36.9577C12.0112 37.2799 8.08347 36.2385 4.97153 33.4518C2.13732 30.8795 0.44103 27.2685 0.261305 23.425C-0.170219 15.7441 5.03144 9.21668 12.6402 8.19573C13.2775 8.10998 13.8781 8.07173 14.5189 8.03658Z" fill="white"/>
<path d="M87.9315 44.0492C89.4035 43.7305 90.8538 44.6718 91.1778 46.1563C91.5019 47.6408 90.578 49.111 89.1097 49.4467C87.6293 49.7851 86.1591 48.8426 85.8324 47.3461C85.5057 45.8496 86.4475 44.3705 87.9315 44.0492Z" fill="white"/>
<path d="M55.9467 44.0495C57.4253 43.7289 58.8813 44.6807 59.1973 46.1741C59.5133 47.6675 58.5695 49.1365 57.0902 49.4544C55.6131 49.7716 54.1606 48.8202 53.845 47.3287C53.5293 45.8373 54.4701 44.3698 55.9467 44.0495Z" fill="white"/>
<path d="M46.928 44.0773C47.9995 44.065 49.4161 43.9325 50.2891 44.6232C51.5971 45.658 51.5267 47.3913 50.5906 48.6359C49.3775 49.6174 48.4291 49.4355 46.928 49.4208V44.0773Z" fill="white"/>
<path d="M20.7929 44.0774C21.7925 44.0615 23.6789 43.8553 24.1762 44.8542C24.7171 45.9412 24.237 46.7134 23.3223 47.2403C23.5729 47.7096 24.3403 48.9403 24.3637 49.3811C24.1066 49.4521 23.8503 49.4753 23.6406 49.3054L22.6054 47.3334H21.5243C21.5289 47.7343 21.5821 49.0558 21.4429 49.3869C21.1395 49.4046 21.1479 49.405 20.8529 49.3293C20.7259 48.8623 20.7906 44.802 20.7929 44.0774Z" fill="white"/>
<path d="M69.8369 44.0773C70.8357 44.0615 72.7256 43.8606 73.2221 44.853C73.7619 45.9319 73.2673 46.7207 72.3629 47.2398C72.6123 47.7096 73.382 48.9403 73.4065 49.381C73.1456 49.4532 72.8939 49.4745 72.6804 49.3041L71.6452 47.3333H70.5576C70.5641 47.8065 70.5672 48.2797 70.5657 48.7529C70.5622 49.0306 70.5664 49.2377 70.3817 49.4204C70.0905 49.4135 70.081 49.4637 69.8832 49.3231C69.7516 48.3319 69.8335 45.2358 69.8369 44.0773Z" fill="white"/>
<path d="M60.5141 44.0775C61.4797 44.0713 62.8003 43.9032 63.5298 44.5704C63.8252 44.8369 63.9946 45.2182 63.9958 45.6183C64.0004 47.0368 62.8508 47.3616 61.7016 47.3412H61.3749C60.9659 47.6807 61.5348 48.8419 61.1105 49.3723C60.8978 49.4642 60.8489 49.4287 60.6186 49.3866C60.5861 49.3479 60.5535 49.3093 60.521 49.2707C60.508 48.1767 60.5141 44.9883 60.5141 44.0775Z" fill="white"/>
<path d="M65.1961 44.0772C65.96 44.0853 67.7875 43.974 68.4038 44.1587C68.4673 44.4036 68.4738 44.2881 68.3973 44.5183C67.9799 44.83 66.5469 44.701 65.9168 44.6921V46.4045C66.359 46.403 67.7852 46.3284 68.0266 46.5119C68.1035 46.8097 68.1085 46.6676 68.0209 46.9542C67.6766 47.1338 66.5266 46.9009 65.9719 47.0666L65.9168 47.2296V48.8061C66.6264 48.8169 67.8372 48.6635 68.4183 48.9192C68.5951 49.1336 68.5503 49.0131 68.5534 49.2955C68.2596 49.5218 65.734 49.4249 65.1953 49.4206L65.1961 44.0772Z" fill="white"/>
<path d="M5.92676 44.0772C6.5517 44.0799 8.68437 43.9868 9.14543 44.1645C9.18671 44.4318 9.21092 44.3143 9.1053 44.5341C8.67982 44.82 7.25576 44.7002 6.63234 44.6921V46.4045L8.19684 46.3972C8.57844 46.398 8.56907 46.357 8.76812 46.5598C8.80828 46.8433 8.82852 46.7139 8.72581 46.9643C8.37558 47.1222 7.26528 46.9079 6.69325 47.0651L6.63234 47.2312V48.8061C7.3698 48.8177 8.54245 48.6631 9.15086 48.9135C9.32757 49.1329 9.28457 49.0089 9.27049 49.3024C8.93889 49.5269 6.50836 49.4249 5.92676 49.4206V44.0772Z" fill="white"/>
<path d="M42.2822 44.0771C42.9429 44.081 45.0022 43.9767 45.4945 44.1686C45.5412 44.4116 45.5523 44.295 45.4486 44.5294C45.0225 44.8261 43.617 44.7006 42.9865 44.6921V46.4045C43.4506 46.3983 45.2172 46.1889 45.2092 46.7938C44.7214 47.342 43.8836 46.8074 43.0439 47.065L42.9865 47.235V48.806C43.5917 48.811 45.247 48.6159 45.6388 49.0385L45.6296 49.2946C45.2467 49.533 42.9054 49.4252 42.2822 49.4206V44.0771Z" fill="white"/>
<path d="M2.55161 44.0186C3.12369 43.9719 4.9735 43.8935 4.62151 44.9322C4.23628 44.9677 3.49316 44.6247 2.88753 44.6521C2.36538 44.6803 1.87759 44.9237 1.53822 45.3254C0.77942 46.2243 0.873147 47.7447 1.84771 48.4559C2.46764 48.9082 3.07981 48.8657 3.79263 48.7804C4.10035 48.673 4.2559 48.5922 4.57495 48.5949C4.76543 48.7089 4.7002 48.651 4.81558 48.8576C4.02683 50.1331 1.08019 49.5807 0.460523 47.6984C0.202221 46.9273 0.275441 46.0826 0.66232 45.3687C1.11435 44.5502 1.70827 44.2465 2.55161 44.0186Z" fill="white"/>
<path d="M99.1277 44.0265C99.599 43.9906 100.713 43.9504 101.042 44.3259C101.043 44.66 101.096 44.5245 100.934 44.7643C100.377 44.9204 99.0707 44.2177 98.698 45.139C98.2 46.3709 101.047 46.4447 101.276 47.6866C101.495 48.8756 100.901 49.2255 99.9995 49.489C99.7956 49.4967 99.5913 49.5006 99.387 49.4998C98.9092 49.4956 98.3782 49.4755 98.0347 49.1274C97.9348 48.8076 97.9498 48.971 98.0244 48.6168C98.4999 48.4777 99.4165 49.144 100.087 48.7937C100.294 48.6851 100.659 48.3919 100.652 48.1888C100.606 47.0322 98.6391 47.1682 98.0573 45.9568C97.9039 45.6354 97.8905 45.2642 98.0198 44.9324C98.226 44.4086 98.6502 44.2255 99.1277 44.0265Z" fill="white"/>
<path d="M15.7842 44.0775C16.4858 44.0783 19.3829 43.894 19.7329 44.3255C19.7364 44.587 19.7857 44.4943 19.6549 44.6515C19.2065 44.7133 18.5845 44.6933 18.1182 44.6925V47.7515C18.1208 48.1795 18.1472 48.9609 18.0876 49.3522C17.8921 49.426 17.6078 49.4349 17.4464 49.2897C17.3366 48.4626 17.4108 45.6621 17.4146 44.6925C16.8986 44.682 16.3989 44.8049 15.9514 44.6446C15.7448 44.4445 15.8133 44.4642 15.7842 44.0775Z" fill="white"/>
<path d="M63.4346 14.6824C64.7196 14.5619 67.6966 14.8849 68.5038 16.0004L68.4491 16.2067C68.1955 16.3929 68.0952 16.3867 67.7754 16.4482C67.3034 16.5478 66.6775 16.7885 66.179 16.9353L66.101 16.8785C66.3167 15.3275 64.5631 15.0792 63.4346 14.6824Z" fill="white"/>
</g>
<defs>
<clipPath id="clip0_53_188">
<rect width="101" height="44" fill="white"/>
</clipPath>
</defs>
</svg>
