<svg width="20" height="20" viewBox="0 0 20 20" fill="none" xmlns="http://www.w3.org/2000/svg">
<path d="M10 14.1667V13.3333M11.7361 7.57577C11.3889 7.03031 10.6944 6.66668 9.93056 6.66668C8.81944 6.66668 7.91666 7.45455 7.91666 8.48486C7.91666 8.48486 7.91666 10 10 10C12.0833 10 12.0833 11.5152 12.0833 11.5152C12.0833 12.5455 11.1806 13.3333 10.0694 13.3333C9.30555 13.3333 8.6111 12.9697 8.26388 12.4243M10 6.66668V5.83334" stroke="white" stroke-width="1.5" stroke-linecap="round" stroke-linejoin="round"/>
<path d="M10 2.5C5.85786 2.5 2.5 5.85786 2.5 10C2.5 14.1421 5.85787 17.5 10 17.5C14.1421 17.5 17.5 14.1421 17.5 10C17.5 5.85786 14.1421 2.5 10 2.5Z" stroke="white" stroke-width="1.5" stroke-linecap="round" stroke-linejoin="round"/>
</svg>
