<svg width="20" height="20" viewBox="0 0 20 20" fill="none" xmlns="http://www.w3.org/2000/svg">
<path d="M15 14.9306C15 15.9926 12.5 16.6667 10 16.6667C7.08333 16.6667 5 15.9926 5 14.9306C5 13.3814 7.5 12.5 10 12.5C12.5 12.5 15 13.5417 15 14.9306Z" fill="#947550"/>
<path d="M9.99959 9.99998C11.8405 9.99998 13.3329 8.5076 13.3329 6.66665C13.3329 4.8257 11.8405 3.33331 9.99959 3.33331C8.15864 3.33331 6.66626 4.8257 6.66626 6.66665C6.66626 8.5076 8.15864 9.99998 9.99959 9.99998Z" fill="#947550"/>
<path d="M17.0833 14.445C17.9541 14.1981 18.3333 13.7892 18.3333 13.2673C18.3333 12.259 16.8842 11.4712 15 11.2896L17.0833 14.445Z" fill="#947550"/>
<path d="M15 9.16667C16.1506 9.16667 17.0833 8.23393 17.0833 7.08333C17.0833 5.93274 16.1506 5 15 5V9.16667Z" fill="#947550"/>
<path d="M2.91667 14.445C2.04592 14.1981 1.66667 13.7892 1.66667 13.2673C1.66667 12.2639 3.10171 11.4788 4.97247 11.2923L2.91667 14.445Z" fill="#947550"/>
<path d="M5 9.16667C3.84941 9.16667 2.91667 8.23393 2.91667 7.08333C2.91667 5.93274 3.84941 5 5 5V9.16667Z" fill="#947550"/>
</svg>
