<svg width="20" height="20" viewBox="0 0 20 20" fill="none" xmlns="http://www.w3.org/2000/svg">
<path d="M10 12.5C11.3807 12.5 12.5 11.3807 12.5 10C12.5 8.61929 11.3807 7.5 10 7.5C8.61929 7.5 7.5 8.61929 7.5 10C7.5 11.3807 8.61929 12.5 10 12.5Z" stroke="white" stroke-width="1.5" stroke-linecap="round" stroke-linejoin="round"/>
<path d="M3.33333 6.22973C2.59492 7.5 2.83715 12.9167 3.33333 13.7703C4.16672 15.204 8.3334 17.5 10 17.5C11.6666 17.5 15.9518 15 16.6667 13.7703C17.3815 12.5405 17.3815 7.45946 16.6667 6.22973C15.9519 4.99999 11.6667 2.5 10 2.5C8.33326 2.5 4.07175 4.95946 3.33333 6.22973Z" stroke="white" stroke-width="1.5" stroke-linecap="round" stroke-linejoin="round"/>
</svg>
