<svg width="24" height="24" viewBox="0 0 24 24" fill="none" xmlns="http://www.w3.org/2000/svg">
<path d="M6 11.25H18C18.5967 11.25 19.169 11.0129 19.591 10.591C20.0129 10.169 20.25 9.59674 20.25 9V6C20.25 5.40326 20.0129 4.83097 19.591 4.40901C19.169 3.98705 18.5967 3.75 18 3.75H6C5.40326 3.75 4.83097 3.98705 4.40901 4.40901C3.98705 4.83097 3.75 5.40326 3.75 6V9C3.75 9.59674 3.98705 10.169 4.40901 10.591C4.83097 11.0129 5.40326 11.25 6 11.25ZM5.25 6C5.25 5.80109 5.32902 5.61032 5.46967 5.46967C5.61032 5.32902 5.80109 5.25 6 5.25H18C18.1989 5.25 18.3897 5.32902 18.5303 5.46967C18.671 5.61032 18.75 5.80109 18.75 6V9C18.75 9.19891 18.671 9.38968 18.5303 9.53033C18.3897 9.67098 18.1989 9.75 18 9.75H6C5.80109 9.75 5.61032 9.67098 5.46967 9.53033C5.32902 9.38968 5.25 9.19891 5.25 9V6ZM6 20.25H18C18.5967 20.25 19.169 20.0129 19.591 19.591C20.0129 19.169 20.25 18.5967 20.25 18V15C20.25 14.4033 20.0129 13.831 19.591 13.409C19.169 12.9871 18.5967 12.75 18 12.75H6C5.40326 12.75 4.83097 12.9871 4.40901 13.409C3.98705 13.831 3.75 14.4033 3.75 15V18C3.75 18.5967 3.98705 19.169 4.40901 19.591C4.83097 20.0129 5.40326 20.25 6 20.25ZM5.25 15C5.25 14.8011 5.32902 14.6103 5.46967 14.4697C5.61032 14.329 5.80109 14.25 6 14.25H18C18.1989 14.25 18.3897 14.329 18.5303 14.4697C18.671 14.6103 18.75 14.8011 18.75 15V18C18.75 18.1989 18.671 18.3897 18.5303 18.5303C18.3897 18.671 18.1989 18.75 18 18.75H6C5.80109 18.75 5.61032 18.671 5.46967 18.5303C5.32902 18.3897 5.25 18.1989 5.25 18V15Z" fill="#3D3936"/>
</svg>
