<svg width="40" height="40" viewBox="0 0 40 40" fill="none" xmlns="http://www.w3.org/2000/svg">
<rect width="40" height="40" rx="20" fill="#F7F7F7"/>
<path d="M17.2002 10.5H22.7998C23.4222 10.5 23.9556 10.8054 24.2656 11.3477L24.3848 11.5566L24.6221 11.5938C26.2791 11.8554 27.5 13.2461 27.5 15V26C27.5 27.9239 25.9239 29.5 24 29.5H16C14.0761 29.5 12.5 27.9239 12.5 26V15C12.5 13.2461 13.7209 11.8554 15.3779 11.5938L15.6152 11.5566L15.7344 11.3477C16.0444 10.8054 16.5778 10.5 17.2002 10.5ZM14.7227 12.7842C14.0075 13.261 13.5 14.0061 13.5 15V26.0996C13.5 27.4758 14.6239 28.5996 16 28.5996H24C25.3761 28.5996 26.5 27.4758 26.5 26.0996V15.0996C26.4999 14.1453 26.0221 13.2518 25.2236 12.8525L24.5 12.4912V13.332C24.496 13.3401 24.4915 13.3514 24.4854 13.3643C24.4293 13.418 24.3906 13.4757 24.3652 13.5264C24.3465 13.5637 24.3333 13.5993 24.3242 13.6309C24.3121 13.647 24.2987 13.6642 24.2871 13.6836C24.2785 13.698 24.2706 13.7134 24.2627 13.7295L24.2461 13.7461L24.0469 13.9463L23.9463 14.0469C23.9287 14.0645 23.9139 14.0828 23.8994 14.0996H23.8926L23.7295 14.2627C23.7134 14.2706 23.698 14.2785 23.6836 14.2871C23.6773 14.2909 23.672 14.2959 23.666 14.2998H23.2998V14.5H17.2002C17.0904 14.5 17.0587 14.4986 17.0322 14.4941C17.0182 14.4918 16.9911 14.4867 16.9238 14.4531L16.8184 14.4004H16.6699C16.6617 14.3963 16.6496 14.3914 16.6357 14.3848C16.5821 14.3289 16.5242 14.2909 16.4736 14.2656C16.4359 14.2468 16.3999 14.2337 16.3682 14.2246C16.3522 14.2126 16.3356 14.1981 16.3164 14.1865C16.3018 14.1778 16.2859 14.1701 16.2695 14.1621L16.0537 13.9463L15.9531 13.8467C15.9354 13.8289 15.9174 13.8134 15.9004 13.7988V13.793L15.7002 13.5928V13.2002H15.5V12.2656L14.7227 12.7842ZM15.6582 13.5508C15.6591 13.5517 15.6595 13.553 15.6602 13.5537L15.6533 13.5469H15.6543L15.6582 13.5508ZM15.5986 13.5684C15.599 13.5736 15.5994 13.579 15.5996 13.584V13.5996L15.5977 13.5557C15.5981 13.5601 15.5983 13.5643 15.5986 13.5684ZM23.5 11.8926L23.1074 11.5H17.2002C17 11.5 16.8476 11.5922 16.7852 11.6338C16.7458 11.66 16.7136 11.686 16.6914 11.7051C16.6802 11.7147 16.6705 11.7235 16.6631 11.7305C16.6595 11.7338 16.656 11.7366 16.6533 11.7393L16.6475 11.7451V11.7461H16.6465L16.5 11.8926V12.7998C16.5 13.0124 16.6013 13.1833 16.709 13.291C16.8167 13.3987 16.9876 13.5 17.2002 13.5H22.7998C23.0124 13.5 23.1833 13.3987 23.291 13.291C23.3987 13.1833 23.5 13.0124 23.5 12.7998V11.8926Z" stroke="#3D3936"/>
<path d="M17 24H19C19.6 24 20 23.6 20 23C20 22.4 19.6 22 19 22H17C16.4 22 16 22.4 16 23C16 23.6 16.4 24 17 24ZM17 20H23C23.6 20 24 19.6 24 19C24 18.4 23.6 18 23 18H17C16.4 18 16 18.4 16 19C16 19.6 16.4 20 17 20Z" fill="#3D3936"/>
</svg>
