<svg width="48" height="48" viewBox="0 0 48 48" fill="none" xmlns="http://www.w3.org/2000/svg">
<rect x="0.5" y="0.5" width="47" height="47" rx="23.5" stroke="#3D3936" stroke-opacity="0.1"/>
<path fill-rule="evenodd" clip-rule="evenodd" d="M20.3213 15C18.527 15 16.8703 15.9614 15.9801 17.5193L13.6588 21.5816C13.2271 22.3371 13 23.1921 13 24.0623V28C13 30.7614 15.2386 33 18 33H30C32.7614 33 35 30.7614 35 28V24.0623C35 23.1921 34.7729 22.3371 34.3412 21.5816L32.0199 17.5193C31.1297 15.9614 29.473 15 27.6787 15H20.3213ZM17.7166 18.5116C18.2507 17.5769 19.2447 17 20.3213 17H27.6787C28.7553 17 29.7493 17.5769 30.2834 18.5116L32.2768 22H28C26.8954 22 26 22.8954 26 24C26 24.5523 25.5523 25 25 25H23C22.4477 25 22 24.5523 22 24C22 22.8954 21.1046 22 20 22H15.7232L17.7166 18.5116ZM15.0006 24C15.0002 24.0207 15 24.0415 15 24.0623V28C15 29.6569 16.3431 31 18 31H30C31.6569 31 33 29.6569 33 28V24.0623C33 24.0415 32.9998 24.0207 32.9994 24H28C28 25.6569 26.6569 27 25 27H23C21.3431 27 20 25.6569 20 24H15.0006Z" fill="#3D3936"/>
<circle cx="30" cy="16" r="3.5" fill="#FF5100" stroke="white"/>
</svg>
